<?xml version="1.0" standalone="no"?>
<!DOCTYPE svg PUBLIC "-//W3C//DTD SVG 20010904//EN"
 "http://www.w3.org/TR/2001/REC-SVG-20010904/DTD/svg10.dtd">
<svg version="1.0" xmlns="http://www.w3.org/2000/svg"
 width="700.000000pt" height="700.000000pt" viewBox="0 0 700.000000 700.000000"
 preserveAspectRatio="xMidYMid meet">
<metadata>
Created by potrace 1.14, written by Peter Selinger 2001-2017
</metadata>
<g transform="translate(0.000000,700.000000) scale(0.100000,-0.100000)"
fill="#000000" stroke="none">
<path d="M3780 6923 c-192 -71 -352 -245 -401 -436 -13 -53 -15 -54 -104 -33
-438 102 -851 -79 -1071 -469 -130 -230 -188 -484 -178 -785 2 -63 6 -124 8
-135 2 -11 13 -64 25 -117 65 -308 257 -627 502 -832 133 -111 313 -201 472
-236 31 -7 55 -15 52 -18 -2 -3 -417 -5 -921 -5 -504 0 -937 -4 -963 -9 -25
-5 -55 -10 -66 -12 -41 -8 -141 -50 -197 -83 -170 -100 -313 -306 -344 -496
-45 -274 57 -534 275 -706 86 -67 213 -124 305 -137 51 -7 41 -14 -20 -15
-305 -4 -592 -126 -809 -344 -220 -219 -333 -483 -340 -790 -7 -295 82 -557
261 -770 197 -236 429 -365 759 -422 53 -9 5828 -9 5865 0 41 10 74 39 95 81
41 81 -9 176 -105 199 l-25 6 0 872 0 871 38 13 c91 31 130 118 91 201 -18 38
-59 71 -95 78 -13 3 -118 5 -234 5 -207 1 -209 1 -175 19 120 60 97 243 -34
267 l-31 6 2 422 c1 232 2 430 2 440 1 11 9 17 23 17 32 0 86 40 103 77 31 64
11 143 -46 184 l-34 24 -1292 0 c-710 0 -1289 3 -1287 6 2 4 26 9 52 13 62 8
200 54 272 91 371 188 674 615 746 1052 17 104 23 318 12 418 -38 330 -161
602 -358 793 -63 61 -201 150 -284 185 -176 72 -405 88 -598 43 l-57 -13 20
39 c34 67 89 118 171 159 87 44 108 68 116 136 9 85 -53 154 -139 152 -24 0
-51 -3 -59 -6z m-154 -3050 c77 -10 39 -16 -103 -15 -196 1 -197 1 -103 25 75
19 90 20 124 9 21 -7 58 -15 82 -19z m-501 -13 c3 -6 -1 -7 -9 -4 -18 7 -21
14 -7 14 6 0 13 -4 16 -10z"/>
</g>
</svg>
